<svg width="120" height="131" viewBox="0 0 120 131" fill="none" xmlns="http://www.w3.org/2000/svg">
<path d="M64.0526 82.9038C68.6297 84.0479 71.7987 86.5817 73.1066 90.984C74.973 97.2661 70.4102 103.907 63.7013 104.75C58.2614 105.433 53.489 102.997 51.358 98.2177C48.1963 91.1269 52.7549 83.9005 60.2479 82.8511C61.503 82.6753 62.7275 82.7022 64.0526 82.9038Z" fill="#008EDE"/>
<path d="M21.4469 58.0068C18.8858 55.8977 16.3792 53.8362 13.8773 51.7692C13.8067 51.7108 13.7876 51.5941 13.6983 51.4087C14.503 50.77 15.3028 50.0952 16.0096 49.3234C16.4614 48.83 16.8357 49.3273 17.1488 49.5861C19.9665 51.9149 22.7839 54.2445 25.5723 56.606C26.8892 57.7213 28.1868 57.6668 29.2422 56.3414C31.6094 53.3688 33.989 50.405 36.314 47.4017C36.8943 46.6521 37.3193 46.5974 38.0595 47.1991C39.987 48.766 40.0183 48.7444 38.4839 50.6676C36.241 53.4787 33.9872 56.2818 31.7348 59.0859C31.2152 59.7328 31.3386 60.4789 32.2409 61.2206C34.5374 63.108 36.8667 64.9581 39.1869 66.8185C44.7339 71.2663 50.2841 75.7104 55.8292 80.1605C56.1139 80.3889 56.478 80.5643 56.5836 81.0918C55.422 81.5985 54.2976 82.2298 53.1938 82.9324C50.5226 80.7987 47.8796 78.6916 45.2412 76.5792C40.6245 72.8829 36.004 69.191 31.4037 65.4758C30.8242 65.0078 30.4304 64.8793 29.7253 65.3652C27.9206 66.6091 25.5526 66.438 23.8452 65.0846C22.3622 63.9091 21.9058 61.9628 22.7213 59.9621C22.9274 59.4567 22.8584 59.1536 22.4442 58.8436C22.116 58.5979 21.8151 58.3182 21.4469 58.0068Z" fill="#DC7800"/>
<path d="M118.011 99.2405C115.118 102.3 111.636 103.318 107.62 102.115C103.853 100.987 101.926 98.2195 101.31 94.5943C100.513 89.898 104.369 85.3491 109.313 84.8653C112.353 84.5679 115.033 85.2157 117.236 87.2782C120.618 90.4442 120.92 95.2779 118.011 99.2405Z" fill="#008EDE"/>
<path d="M14.8253 102.157C9.78559 103.478 4.74221 100.438 3.51609 96.2489C1.8712 90.6291 5.55067 85.5127 11.3013 84.8491C16.6461 84.2324 20.9332 87.913 21.491 92.0698C22.1391 96.8991 19.7216 100.562 14.8253 102.157Z" fill="#008EDE"/>
<path d="M52.4322 9.88408C52.4583 6.34657 53.6988 3.4871 56.9204 1.74486C60.1062 0.0219234 63.367 0.104223 66.5006 1.88752C69.9504 3.85081 71.5289 7.99315 70.415 11.8389C69.3036 15.6759 65.8091 18.2718 61.7669 18.2631C56.8263 18.2525 53.2272 15.2068 52.5494 10.4655C52.5257 10.3001 52.4792 10.1378 52.4322 9.88408Z" fill="#008EDE"/>
<path d="M3.6213 49.1232C0.317683 46.6158 -0.810477 42.9497 0.588549 39.426C1.90864 36.101 5.41837 34.0224 9.36382 34.2289C13.2896 34.4344 16.9196 37.8323 17.1414 41.5091C17.4224 46.1657 14.6942 49.7054 10.3268 50.4564C7.91423 50.8712 5.72222 50.4394 3.6213 49.1232Z" fill="#008EDE"/>
<path d="M47.7804 33.9001C51.2325 35.4947 52.7317 38.4034 52.6271 41.2229C52.5005 44.6317 50.4456 47.292 47.2554 48.2654C44.1192 49.2223 41.2373 48.5781 38.8972 46.3746C36.5186 44.1347 35.9495 41.3214 37.0417 38.3218C38.1046 35.403 40.4227 33.8882 43.5459 33.3781C45.0103 33.1389 46.3547 33.4325 47.7804 33.9001Z" fill="#008EDE"/>
<path d="M98.9831 56.7464C99.7683 59.7791 99.4576 62.5334 97.0076 64.6698C94.4629 66.889 91.4808 67.3214 88.292 66.125C85.0841 64.9215 83.0222 61.2416 83.6418 57.9426C84.321 54.3255 87.3227 51.7804 90.989 51.7129C94.8518 51.6419 97.784 53.4674 98.9831 56.7464Z" fill="#008EDE"/>
<path d="M76.2512 115.435C74.1257 112.732 73.8619 109.575 75.4969 106.932C77.0349 104.447 80.2657 103.005 83.3495 103.429C86.4473 103.854 89.0721 106.132 89.8429 109.065C90.6695 112.209 88.9807 115.788 85.9586 117.297C82.5029 119.022 78.7957 118.329 76.2512 115.435Z" fill="#008EDE"/>
<path d="M115.213 48.1255C110.999 50.1269 106.304 48.6425 104.584 44.8238C102.875 41.0294 104.784 36.6769 108.776 35.264C112.924 33.7964 117.433 35.9385 118.659 39.9588C119.612 43.0834 118.309 46.2179 115.213 48.1255Z" fill="#008EDE"/>
<path d="M60.8838 116.751C63.8625 116.481 66.1524 117.572 67.7727 119.819C69.4012 122.078 69.4183 124.525 68.1217 126.954C66.8228 129.386 63.5477 130.893 60.7296 130.414C57.6163 129.885 55.3128 127.545 54.8593 124.662C54.2191 120.591 57.2771 117.242 60.8838 116.751Z" fill="#008EDE"/>
<path d="M67.8038 58.3409C68.4253 60.423 67.7783 62.0381 66.1072 63.2787C65.5807 63.6695 65.4064 64.0998 65.4091 64.7246C65.4293 69.5431 65.3952 74.3619 65.4343 79.1801C65.4421 80.14 65.1712 80.4708 64.1395 80.3992C61.5403 80.2187 61.5448 80.2593 61.5281 77.7669C61.4987 73.3844 61.6088 69.0008 61.4128 64.6193C61.3882 64.0698 61.3289 63.6282 60.7896 63.2428C59.0954 62.032 58.5081 60.258 59.0653 58.3717C59.5277 56.8062 61.0501 55.5535 62.7373 55.3501C64.7066 55.1127 66.5171 56.012 67.5043 57.723C67.6051 57.8977 67.682 58.0853 67.8038 58.3409Z" fill="#DC7800"/>
<path d="M29.7031 72.1346C30.5611 72.6487 31.3402 73.1494 32.1545 73.5893C32.8573 73.969 33.2011 74.4507 33.1605 75.2752C33.0932 76.6431 33.1241 78.0167 33.1532 79.3871C33.1661 79.9935 32.9264 80.375 32.3908 80.687C30.7622 81.6358 29.1511 82.6136 27.5494 83.6046C27.095 83.8858 26.7283 83.9632 26.2324 83.6498C24.5832 82.6072 22.91 81.5994 21.2296 80.6042C20.7314 80.3091 20.5188 79.9495 20.5325 79.3781C20.567 77.941 20.578 76.5018 20.5366 75.0652C20.5164 74.3677 20.8085 73.9665 21.4129 73.6269C22.9672 72.7534 24.5057 71.851 26.0168 70.9096C26.6248 70.5309 27.1256 70.4901 27.7185 70.9044C28.3339 71.3345 28.9972 71.7007 29.7031 72.1346Z" fill="#008EDE"/>
<path d="M109.659 52.1967C109.679 50.515 109.679 50.5046 111.333 50.5164C113.823 50.5342 113.472 50.2249 113.477 52.5951C113.495 62.0743 113.492 71.5537 113.497 81.033C113.498 82.4239 113.497 82.424 112.059 82.2038C109.665 81.8374 109.66 81.8374 109.659 79.5261C109.657 70.4488 109.659 61.3715 109.659 52.1967Z" fill="#DC7800"/>
<path d="M6.40148 60.0291C6.40258 57.9182 6.42716 55.9074 6.39272 53.8976C6.37996 53.1529 6.66356 52.8944 7.42478 52.9152C10.6188 53.0027 10.2312 52.4505 10.2387 55.5293C10.2592 63.9394 10.2323 72.3496 10.2698 80.7595C10.2739 81.6842 10.0135 82.1994 9.06525 82.4144C8.60194 82.5195 8.17241 82.7744 7.73627 82.9787C6.53061 83.5436 6.42776 83.481 6.42261 82.1433C6.41925 81.2722 6.41515 80.401 6.41451 79.5299C6.40975 73.0631 6.40578 66.5964 6.40148 60.0291Z" fill="#DC7800"/>
<path d="M47.2463 107.093C49.139 109.532 49.1486 112.168 47.3234 114.457C45.6982 116.495 42.7224 117.234 40.1907 116.166C38.0086 115.246 36.9 113.55 36.7883 111.287C36.6637 108.76 37.6437 106.734 40.0803 105.62C42.4 104.56 44.6005 104.982 46.6027 106.477C46.8203 106.639 46.9992 106.85 47.2463 107.093Z" fill="#008EDE"/>
<path d="M84.9091 27.2316C85.684 28.1828 86.7245 28.5623 87.8021 28.8207C88.7982 29.0596 89.2697 29.4934 88.8074 30.5078C88.7402 30.6554 88.7312 30.834 88.7234 30.9996C88.6968 31.5633 88.45 31.8086 87.8539 31.6C87.7247 31.5548 87.5805 31.5503 87.4505 31.5068C86.4973 31.1877 85.7633 31.0986 84.968 32.0808C83.8051 33.5171 81.5974 33.7181 80.0484 32.8361C78.4491 31.9254 77.7325 30.1176 78.3578 28.3093C78.5783 27.6714 78.5286 27.1678 78.1976 26.6092C77.8542 26.0297 77.5622 25.4196 77.279 24.8094C76.7231 23.6115 76.1992 22.5588 74.5214 22.363C73.1896 22.2076 72.3788 20.641 72.6043 19.4158C72.8418 18.1256 73.9408 17.1725 75.2475 17.1235C76.7179 17.0685 78.131 17.9536 78.2122 19.3751C78.3072 21.0374 79.2945 22.2249 79.9889 23.581C80.2188 24.0302 80.5479 24.4363 80.742 24.8974C81.0987 25.7449 81.7315 26.1208 82.6506 26.1612C83.5254 26.1997 84.2169 26.6444 84.9091 27.2316Z" fill="#DC7800"/>
<path d="M24.0602 95.4571C24.0876 94.7336 24.1639 94.0926 24.1091 93.4623C24.0313 92.5674 24.403 92.3186 25.3022 92.3227C31.8536 92.3528 38.4053 92.3345 44.9568 92.3441C45.7102 92.3452 46.4741 92.2444 47.283 92.4496C47.283 93.6146 47.283 94.7672 47.283 95.8895C46.8915 96.1801 46.4963 96.0816 46.1282 96.082C39.1607 96.0898 32.1931 96.0973 25.2257 96.072C24.8173 96.0705 24.0897 96.4348 24.0602 95.4571Z" fill="#DC7800"/>
<path d="M60.1325 31.0338C60.5885 30.7803 60.9643 30.535 61.3691 30.3482C62.3003 29.9185 62.9309 29.3999 63.1611 28.2724C63.5378 26.4275 65.5545 25.3839 67.4122 25.8222C69.2352 26.2523 70.4553 28.0647 70.0823 29.7885C69.6376 31.8445 67.961 33.1276 66.0024 32.7334C64.9152 32.5145 64.1305 32.7777 63.2323 33.3382C60.6168 34.9704 57.9265 36.4906 55.2624 38.0498C55.1208 38.1327 54.951 38.1707 54.7159 38.2591C54.208 37.3288 53.6864 36.4363 53.2293 35.5138C52.9341 34.9178 53.5344 34.7798 53.8878 34.5766C55.9404 33.3966 58.0049 32.2359 60.1325 31.0338Z" fill="#DC7800"/>
<path d="M84.2816 69.2755C80.3604 73.9721 76.4766 78.6071 72.6235 83.2657C72.1169 83.8782 71.7468 84.005 71.1399 83.4071C70.708 82.9815 70.1871 82.6198 69.6529 82.3169C69.0027 81.9483 68.9702 81.5934 69.4325 81.0481C70.9926 79.2078 72.523 77.344 74.0698 75.4931C76.5966 72.4694 79.1241 69.4463 81.6582 66.4283C82.503 65.4222 82.5493 65.419 83.3985 66.3924C83.9178 66.9878 84.5677 67.427 85.2579 67.9167C85.0686 68.4473 84.675 68.8199 84.2816 69.2755Z" fill="#DC7800"/>
<path d="M96.3388 92.3359C98.0792 92.3383 98.0794 92.3383 98.0804 93.8971C98.0808 94.5597 98.0805 95.2222 98.0805 95.9875C90.8894 95.9875 83.645 95.9875 76.3305 95.9875C76.3305 94.9577 76.3276 93.9357 76.3321 92.9138C76.3337 92.5459 76.5505 92.37 76.9185 92.3581C77.2298 92.348 77.5414 92.3415 77.8528 92.3414C83.9807 92.339 90.1086 92.3377 96.3388 92.3359Z" fill="#DC7800"/>
<path d="M99.6813 71.0826C101.643 74.7415 103.555 78.3409 105.513 81.9167C105.892 82.6086 105.821 82.9485 105.065 83.3C102.536 84.4759 102.516 84.5171 101.195 82.147C99.0284 78.2619 96.9008 74.3563 94.773 70.4512C94.1472 69.3028 94.1776 69.2738 95.3408 68.7386C97.8233 67.5964 97.8243 67.5959 99.0924 69.9377C99.2849 70.2932 99.4634 70.6557 99.6813 71.0826Z" fill="#DC7800"/>
<path d="M27.9991 107.791C25.1006 106.074 22.2668 104.395 19.4365 102.711C19.3253 102.645 19.2487 102.524 19.0824 102.353C19.8586 101.543 20.6132 100.739 21.3894 99.9545C21.6415 99.6998 21.9119 99.9002 22.142 100.036C26.2825 102.471 30.4201 104.912 34.5581 107.352C34.877 107.54 35.1283 107.799 34.9916 108.173C34.6379 109.143 34.4101 110.144 34.2427 111.372C32.075 110.129 30.0697 108.979 27.9991 107.791Z" fill="#DC7800"/>
<path d="M30.3944 44.2021C26.9699 44.2006 23.6493 44.1821 20.3291 44.2093C19.5062 44.2161 19.1224 44.0577 19.2606 43.1392C19.3829 42.3265 19.2862 41.4831 19.2862 40.6389C19.5663 40.404 19.9257 40.4736 20.2637 40.4732C24.5526 40.4684 28.8419 40.4954 33.1303 40.4495C34.1455 40.4386 34.4299 40.7772 34.4175 41.7224C34.385 44.2011 34.424 44.2016 31.8474 44.2015C31.3977 44.2015 30.9481 44.2018 30.3944 44.2021Z" fill="#DC7800"/>
<path d="M29.1322 28.6762C28.0881 28.2523 27.8495 27.5367 27.8856 26.5557C28.002 23.3935 27.4839 24.2846 30.2864 22.5281C31.508 21.7625 32.4095 21.909 33.6512 22.5693C35.4243 23.5123 36.1495 24.6701 35.9309 26.6324C35.8189 27.6384 35.4645 28.1719 34.6819 28.8042C32.8406 30.2918 31.1522 30.6276 29.3708 28.8236C29.3246 28.7768 29.255 28.7516 29.1322 28.6762Z" fill="#008EDE"/>
<path d="M91.3449 32.3531C91.4792 31.1626 92.2464 30.3081 92.7781 29.347C92.9817 28.979 93.3041 29.1323 93.5818 29.304C96.9968 31.4146 100.41 33.5284 103.827 35.6353C104.265 35.9053 104.342 36.1901 104.04 36.6236C103.616 37.2342 103.206 37.8603 102.862 38.5149C102.562 39.0865 102.226 39.1143 101.711 38.7951C98.2713 36.6618 94.8244 34.5395 91.3449 32.3531Z" fill="#DC7800"/>
<path d="M93.4292 102.245C95.3159 101.249 97.1474 100.309 98.9481 99.3165C99.5296 98.996 99.8495 99.0651 100.192 99.6201C100.684 100.418 101.259 101.169 101.872 102.046C98.4497 104.077 94.9009 105.759 91.3415 107.589C90.7705 106.618 90.2251 105.705 89.6942 104.783C89.4493 104.358 89.7775 104.187 90.0935 104.02C91.1837 103.441 92.2727 102.86 93.4292 102.245Z" fill="#DC7800"/>
<path d="M42.3136 57.7857C42.3653 56.7615 42.6812 55.9386 43.5079 55.3639C43.8349 55.1366 43.8562 54.8103 43.855 54.468C43.8528 53.7985 43.9132 53.1232 43.8422 52.4609C43.7315 51.428 44.3179 51.3169 45.1659 51.3289C46.0243 51.3411 46.8131 51.3048 46.6645 52.498C46.6153 52.8938 46.671 53.3008 46.6587 53.7021C46.6327 54.5492 46.6998 55.2792 47.478 55.9344C48.3798 56.6938 48.422 58.1672 47.8229 59.1902C47.2428 60.1807 46.0429 60.7935 44.9585 60.6532C43.6395 60.4825 42.6608 59.6094 42.3944 58.3612C42.3594 58.1976 42.3431 58.0303 42.3136 57.7857Z" fill="#DC7800"/>
<path d="M17.5927 34.7677C18.7509 34.0614 19.8819 33.5262 20.3908 32.1634C20.8053 31.0533 22.4572 30.6675 23.631 31.1279C24.8978 31.6248 25.668 32.9288 25.3879 34.1024C25.0464 35.5336 23.7912 36.76 22.5817 36.4208C21.1425 36.0172 20.1653 36.6427 19.1286 37.2598C18.3132 37.7452 17.7723 37.7236 17.3224 36.8413C17.0977 36.4006 16.7371 36.0246 16.4496 35.635C16.6927 35.1524 17.1623 35.0439 17.5927 34.7677Z" fill="#DC7800"/>
<path d="M83.3002 53.6681C82.8346 54.2446 82.6525 54.9284 82.1263 55.3513C81.7801 55.3553 81.5671 55.1748 81.3676 54.9922C80.7527 54.4298 80.1264 54.2162 79.2229 54.4471C77.7504 54.8234 76.3956 53.9902 75.973 52.6408C75.5005 51.1324 76.1416 49.6911 77.5416 49.1145C78.9427 48.5375 80.8307 48.9873 81.3018 50.2849C81.7517 51.524 82.6839 52.1336 83.6392 52.7729C83.7976 53.172 83.4634 53.352 83.3002 53.6681Z" fill="#DC7800"/>
<path d="M65.4573 108.806C66.616 110.137 66.5333 111.91 65.3211 113C64.2092 114 62.4212 113.973 61.2687 112.939C60.0531 111.849 59.9858 110.057 61.1509 108.788C61.528 108.377 61.8219 107.96 61.9458 107.414C62.1907 106.334 63.1494 106.788 63.8162 106.668C64.4842 106.548 64.6402 106.993 64.6013 107.536C64.5586 108.133 65.0357 108.408 65.4573 108.806Z" fill="#DC7800"/>
<path d="M18.2706 71.7742C17.1982 73.0521 15.9568 73.463 14.6739 73.0137C13.4673 72.5912 12.6178 71.3886 12.6438 70.14C12.6714 68.819 13.532 67.71 14.9 67.3368C16.1217 67.0035 17.1819 67.4246 17.9891 68.2812C18.9543 69.3053 19.0266 70.4942 18.2706 71.7742Z" fill="#008EDE"/>
<path d="M91.3078 44.208C92.225 45.7116 92.0597 47.1637 90.9106 48.1733C89.918 49.0455 88.1869 49.1059 87.0632 48.3077C85.9169 47.4934 85.5559 45.9268 86.2104 44.6068C87.1253 42.7615 89.6038 42.5362 91.3078 44.208Z" fill="#008EDE"/>
<path d="M38.3637 82.2756C39.4072 83.7224 39.4448 84.8492 38.5406 86C37.8314 86.9026 36.4894 87.2844 35.3783 86.885C34.2225 86.4695 33.5553 85.6068 33.5048 84.4708C33.4574 83.4045 33.9045 82.4265 34.9466 81.873C36.1314 81.2437 37.2666 81.3923 38.3637 82.2756Z" fill="#008EDE"/>
<path d="M51.0664 17.5781C51.758 18.8545 51.4017 19.9312 50.5536 20.8748C49.8711 21.6341 48.5886 21.8349 47.5862 21.3956C46.6034 20.9648 45.9904 20.2421 45.9411 19.1542C45.8901 18.0262 46.2696 17.1016 47.3624 16.5796C48.4143 16.0771 49.4448 16.1578 50.3847 16.8591C50.627 17.0399 50.812 17.2925 51.0664 17.5781Z" fill="#DC7800"/>
<path d="M70.2047 115.8C71.0809 115.268 71.8936 114.777 72.7919 114.234C73.4192 115.229 73.8577 116.251 74.6402 117.056C74.9692 117.395 74.7283 117.677 74.3912 117.857C73.2454 118.469 72.092 119.067 70.9427 119.673C70.6117 119.848 70.3365 119.793 70.1544 119.474C69.6547 118.6 69.0105 117.824 68.3235 117.062C68.822 116.41 69.5837 116.265 70.2047 115.8Z" fill="#DC7800"/>
<path d="M54.5114 117.163C53.9353 118.129 53.3443 119.023 52.699 120C51.159 119.159 49.8211 118.251 48.4603 117.299C49.0102 116.396 49.5205 115.569 50.0182 114.735C50.2133 114.408 50.4564 114.317 50.7813 114.542C52.0145 115.399 53.4148 116.028 54.5114 117.163Z" fill="#DC7800"/>
<path d="M68.781 49.9702C67.3378 49.9983 66.2588 49.4268 65.8763 48.5001C65.7409 48.172 65.6929 47.851 65.9269 47.547C66.1428 47.2665 66.4345 47.241 66.7657 47.3158C67.3791 47.4544 68.0964 47.8991 68.5254 47.1154C68.9734 46.2971 68.4438 45.726 67.7792 45.2568C67.7053 45.2046 67.6767 45.0926 67.5975 44.958C68.1805 44.2871 68.8623 44.5762 69.4765 44.8126C70.4628 45.1922 71.0926 46.2338 71.0285 47.3146C70.9479 48.6719 70.2044 49.5471 68.781 49.9702Z" fill="#008EDE"/>
</svg>
