<svg width="148" height="40" viewBox="0 0 148 40" fill="none" xmlns="http://www.w3.org/2000/svg">
<path d="M15.7163 24.418C16.8394 24.7084 17.6169 25.3516 17.9379 26.4691C18.3958 28.0638 17.2762 29.7495 15.6301 29.9635C14.2953 30.137 13.1244 29.5186 12.6015 28.3054C11.8257 26.5054 12.9442 24.671 14.7828 24.4046C15.0907 24.36 15.3912 24.3668 15.7163 24.418Z" fill="#008EDE"/>
<path d="M5.26234 18.0976C4.63394 17.5622 4.01889 17.0389 3.40503 16.5142C3.3877 16.4994 3.38302 16.4697 3.36111 16.4227C3.55856 16.2605 3.7548 16.0893 3.92822 15.8933C4.03907 15.7681 4.13092 15.8943 4.20774 15.96C4.89911 16.5512 5.59039 17.1425 6.27457 17.742C6.5977 18.0251 6.91609 18.0113 7.17505 17.6748C7.75586 16.9202 8.33975 16.1679 8.91021 15.4055C9.0526 15.2152 9.15688 15.2013 9.33851 15.3541C9.81145 15.7518 9.81914 15.7464 9.44265 16.2345C8.89231 16.9481 8.3393 17.6597 7.78664 18.3715C7.65916 18.5357 7.68943 18.7251 7.91083 18.9134C8.4743 19.3925 9.04583 19.8622 9.61513 20.3344C10.9762 21.4635 12.338 22.5916 13.6986 23.7212C13.7684 23.7792 13.8578 23.8237 13.8837 23.9576C13.5987 24.0862 13.3228 24.2465 13.052 24.4248C12.3965 23.8832 11.748 23.3483 11.1006 22.8121C9.96786 21.8738 8.83416 20.9366 7.7054 19.9936C7.56322 19.8748 7.4666 19.8421 7.29359 19.9655C6.85076 20.2812 6.26973 20.2378 5.8508 19.8943C5.48692 19.5958 5.37494 19.1018 5.57505 18.5939C5.6256 18.4656 5.60869 18.3887 5.50706 18.31C5.42652 18.2476 5.35268 18.1766 5.26234 18.0976Z" fill="#DC7800"/>
<path d="M28.9558 28.5649C28.2461 29.3416 27.3918 29.5999 26.4063 29.2946C25.4818 29.0081 25.0091 28.3057 24.8581 27.3855C24.6624 26.1933 25.6085 25.0386 26.8217 24.9158C27.5677 24.8403 28.2252 25.0047 28.7658 25.5283C29.5956 26.332 29.6696 27.559 28.9558 28.5649Z" fill="#008EDE"/>
<path d="M3.63761 29.3054C2.40103 29.6406 1.16356 28.8689 0.862709 27.8056C0.45911 26.379 1.36193 25.0802 2.77292 24.9118C4.08438 24.7552 5.13627 25.6895 5.27314 26.7447C5.43216 27.9706 4.83898 28.9005 3.63761 29.3054Z" fill="#008EDE"/>
<path d="M12.8651 5.88211C12.8715 4.98413 13.1758 4.25826 13.9663 3.816C14.748 3.37864 15.5481 3.39953 16.317 3.85222C17.1634 4.35059 17.5507 5.40211 17.2774 6.37835C17.0047 7.35234 16.1473 8.0113 15.1555 8.0091C13.9432 8.00641 13.0601 7.23328 12.8938 6.02969C12.888 5.98772 12.8766 5.94653 12.8651 5.88211Z" fill="#008EDE"/>
<path d="M0.888544 15.843C0.0779484 15.2065 -0.198863 14.2759 0.14441 13.3814C0.468314 12.5374 1.32948 12.0098 2.29756 12.0622C3.26081 12.1143 4.15149 12.9769 4.20592 13.9102C4.27486 15.0923 3.60546 15.9908 2.53384 16.1814C1.94188 16.2868 1.40404 16.1771 0.888544 15.843Z" fill="#008EDE"/>
<path d="M11.7237 11.9783C12.5707 12.3831 12.9386 13.1215 12.9129 13.8372C12.8818 14.7025 12.3776 15.3778 11.5949 15.6249C10.8253 15.8678 10.1182 15.7043 9.54403 15.1449C8.9604 14.5764 8.82077 13.8622 9.08877 13.1008C9.34956 12.3598 9.91835 11.9753 10.6847 11.8458C11.044 11.7851 11.3739 11.8596 11.7237 11.9783Z" fill="#008EDE"/>
<path d="M24.287 17.7782C24.4797 18.5481 24.4035 19.2472 23.8023 19.7896C23.1779 20.3529 22.4462 20.4626 21.6638 20.159C20.8767 19.8535 20.3708 18.9193 20.5228 18.0819C20.6895 17.1637 21.426 16.5176 22.3256 16.5005C23.2734 16.4825 23.9928 16.9459 24.287 17.7782Z" fill="#008EDE"/>
<path d="M18.7094 32.6757C18.1879 31.9896 18.1232 31.1881 18.5243 30.5174C18.9017 29.8864 19.6944 29.5205 20.4511 29.628C21.2112 29.736 21.8552 30.3143 22.0444 31.0586C22.2472 31.8568 21.8328 32.7653 21.0913 33.1484C20.2434 33.5863 19.3338 33.4103 18.7094 32.6757Z" fill="#008EDE"/>
<path d="M28.2694 15.5895C27.2353 16.0975 26.0834 15.7207 25.6613 14.7513C25.242 13.7882 25.7103 12.6833 26.69 12.3246C27.7076 11.9521 28.814 12.4958 29.1148 13.5164C29.3487 14.3096 29.0291 15.1052 28.2694 15.5895Z" fill="#008EDE"/>
<path d="M14.9388 33.0103C15.6697 32.9417 16.2315 33.2185 16.6291 33.789C17.0287 34.3625 17.0329 34.9836 16.7147 35.6C16.396 36.2176 15.5924 36.5999 14.901 36.4784C14.1371 36.3442 13.5719 35.7503 13.4606 35.0184C13.3035 33.985 14.0538 33.1348 14.9388 33.0103Z" fill="#008EDE"/>
<path d="M16.6367 18.1828C16.7892 18.7113 16.6305 19.1213 16.2204 19.4362C16.0913 19.5355 16.0485 19.6447 16.0491 19.8033C16.0541 21.0264 16.0457 22.2497 16.0553 23.4728C16.0573 23.7164 15.9908 23.8004 15.7376 23.7822C15.0999 23.7364 15.101 23.7467 15.0969 23.114C15.0897 22.0015 15.1167 20.8888 15.0686 19.7766C15.0626 19.6371 15.048 19.525 14.9157 19.4271C14.5 19.1198 14.3559 18.6695 14.4926 18.1906C14.6061 17.7932 14.9796 17.4752 15.3936 17.4236C15.8768 17.3633 16.321 17.5916 16.5632 18.0259C16.588 18.0703 16.6068 18.1179 16.6367 18.1828Z" fill="#DC7800"/>
<path d="M7.28814 21.684C7.49865 21.8146 7.68982 21.9417 7.88962 22.0533C8.06206 22.1497 8.14643 22.272 8.13647 22.4813C8.11997 22.8285 8.12752 23.1772 8.13468 23.5251C8.13784 23.679 8.07902 23.7758 7.94762 23.855C7.548 24.0959 7.15271 24.3441 6.75971 24.5957C6.64819 24.667 6.55822 24.6867 6.43656 24.6071C6.0319 24.3425 5.62134 24.0867 5.20903 23.834C5.08679 23.7591 5.03463 23.6678 5.03799 23.5228C5.04645 23.158 5.04915 22.7927 5.03899 22.428C5.03405 22.2509 5.10572 22.1491 5.25401 22.0629C5.63539 21.8411 6.01288 21.6121 6.38366 21.3731C6.53283 21.2769 6.65571 21.2666 6.80118 21.3718C6.95219 21.481 7.11494 21.5739 7.28814 21.684Z" fill="#008EDE"/>
<path d="M26.9066 16.623C26.9116 16.1961 26.9116 16.1935 27.3172 16.1965C27.9282 16.201 27.8422 16.1225 27.8433 16.7242C27.8478 19.1304 27.8471 21.5367 27.8483 23.943C27.8484 24.2961 27.8483 24.2961 27.4954 24.2402C26.908 24.1472 26.9067 24.1472 26.9066 23.5605C26.906 21.2563 26.9065 18.952 26.9066 16.623Z" fill="#DC7800"/>
<path d="M1.5707 18.6108C1.57097 18.075 1.577 17.5645 1.56855 17.0544C1.56542 16.8653 1.63501 16.7997 1.82178 16.805C2.60549 16.8272 2.51037 16.687 2.51222 17.4686C2.51726 19.6034 2.51066 21.7383 2.51985 23.8732C2.52086 24.1079 2.45698 24.2387 2.2243 24.2932C2.11062 24.3199 2.00523 24.3846 1.89821 24.4365C1.60238 24.5799 1.57715 24.564 1.57588 24.2244C1.57506 24.0033 1.57406 23.7821 1.5739 23.561C1.57273 21.9194 1.57176 20.2779 1.5707 18.6108Z" fill="#DC7800"/>
<path d="M11.5926 30.5586C12.057 31.1777 12.0594 31.8468 11.6115 32.4278C11.2128 32.9452 10.4826 33.1328 9.86141 32.8617C9.32601 32.628 9.05398 32.1977 9.02659 31.6232C8.996 30.9818 9.23647 30.4674 9.83433 30.1847C10.4035 29.9156 10.9434 30.0225 11.4347 30.4021C11.4881 30.4434 11.532 30.497 11.5926 30.5586Z" fill="#008EDE"/>
<path d="M20.8338 10.2853C21.0239 10.5267 21.2792 10.6231 21.5436 10.6886C21.788 10.7493 21.9037 10.8594 21.7903 11.1169C21.7738 11.1544 21.7716 11.1997 21.7697 11.2418C21.7631 11.3849 21.7026 11.4471 21.5563 11.3942C21.5246 11.3827 21.4892 11.3816 21.4573 11.3705C21.2235 11.2895 21.0434 11.2669 20.8482 11.5162C20.5629 11.8808 20.0212 11.9318 19.6411 11.7079C19.2487 11.4768 19.0729 11.0179 19.2263 10.5588C19.2804 10.3969 19.2682 10.2691 19.187 10.1273C19.1027 9.98017 19.0311 9.8253 18.9616 9.6704C18.8252 9.36631 18.6967 9.09909 18.285 9.04939C17.9582 9.00995 17.7593 8.61226 17.8146 8.30126C17.8729 7.97374 18.1425 7.73179 18.4631 7.71937C18.8239 7.70539 19.1707 7.93008 19.1906 8.29091C19.2139 8.71289 19.4561 9.01433 19.6265 9.35857C19.6829 9.47259 19.7637 9.57569 19.8113 9.69274C19.8988 9.90788 20.0541 10.0033 20.2796 10.0136C20.4943 10.0233 20.6639 10.1362 20.8338 10.2853Z" fill="#DC7800"/>
<path d="M5.90353 27.6049C5.91026 27.4212 5.92897 27.2585 5.91553 27.0985C5.89643 26.8713 5.98765 26.8082 6.20828 26.8092C7.81577 26.8168 9.42332 26.8122 11.0309 26.8146C11.2157 26.8149 11.4031 26.7893 11.6016 26.8414C11.6016 27.1372 11.6016 27.4297 11.6016 27.7146C11.5056 27.7884 11.4086 27.7634 11.3183 27.7635C9.60868 27.7655 7.89908 27.7674 6.18951 27.7609C6.0893 27.7606 5.91077 27.853 5.90353 27.6049Z" fill="#DC7800"/>
<path d="M14.7544 11.2506C14.8664 11.1862 14.9586 11.1239 15.0579 11.0765C15.2864 10.9675 15.4411 10.8358 15.4976 10.5496C15.59 10.0813 16.0848 9.81636 16.5406 9.92761C16.9879 10.0368 17.2873 10.4969 17.1958 10.9345C17.0867 11.4563 16.6753 11.7821 16.1947 11.682C15.928 11.6264 15.7354 11.6932 15.515 11.8355C14.8733 12.2499 14.2132 12.6357 13.5595 13.0315C13.5248 13.0526 13.4831 13.0622 13.4254 13.0847C13.3008 12.8485 13.1728 12.622 13.0607 12.3878C12.9882 12.2365 13.1355 12.2015 13.2222 12.1499C13.7259 11.8503 14.2324 11.5557 14.7544 11.2506Z" fill="#DC7800"/>
<path d="M20.6798 20.9587C19.7177 22.1509 18.7647 23.3275 17.8193 24.5101C17.695 24.6656 17.6042 24.6978 17.4553 24.546C17.3493 24.4379 17.2215 24.3461 17.0904 24.2692C16.9309 24.1757 16.9229 24.0856 17.0364 23.9471C17.4192 23.48 17.7947 23.0069 18.1742 22.537C18.7942 21.7695 19.4144 21.0021 20.0361 20.236C20.2434 19.9806 20.2548 19.9798 20.4631 20.2269C20.5906 20.378 20.75 20.4895 20.9194 20.6138C20.8729 20.7485 20.7764 20.8431 20.6798 20.9587Z" fill="#DC7800"/>
<path d="M23.6382 26.8125C24.0653 26.8131 24.0653 26.8131 24.0656 27.2088C24.0657 27.377 24.0656 27.5452 24.0656 27.7394C22.3011 27.7394 20.5236 27.7394 18.7289 27.7394C18.7289 27.478 18.7282 27.2186 18.7293 26.9592C18.7297 26.8658 18.7829 26.8211 18.8732 26.8181C18.9495 26.8156 19.026 26.8139 19.1024 26.8139C20.606 26.8133 22.1096 26.8129 23.6382 26.8125Z" fill="#DC7800"/>
<path d="M24.4584 21.4173C24.9396 22.3461 25.4088 23.2598 25.8892 24.1675C25.9822 24.3431 25.9649 24.4294 25.7794 24.5186C25.1589 24.8172 25.154 24.8276 24.8297 24.226C24.2982 23.2397 23.7761 22.2483 23.254 21.257C23.1005 20.9655 23.1079 20.9581 23.3934 20.8223C24.0025 20.5323 24.0027 20.5322 24.3139 21.1267C24.3611 21.2169 24.4049 21.3089 24.4584 21.4173Z" fill="#DC7800"/>
<path d="M6.87002 30.7353C6.15883 30.2994 5.46349 29.8733 4.76905 29.4457C4.74175 29.4289 4.72297 29.3982 4.68216 29.3548C4.87262 29.1491 5.05777 28.945 5.24821 28.7459C5.31007 28.6813 5.37643 28.7322 5.43289 28.7665C6.44881 29.3849 7.46404 30.0043 8.47936 30.6237C8.55761 30.6714 8.61927 30.7371 8.58575 30.8322C8.49896 31.0785 8.44306 31.3324 8.40198 31.6443C7.8701 31.3287 7.37807 31.0368 6.87002 30.7353Z" fill="#DC7800"/>
<path d="M7.45775 14.5933C6.61749 14.5929 5.80273 14.5882 4.98806 14.5951C4.78616 14.5968 4.69199 14.5566 4.7259 14.3235C4.75589 14.1172 4.73218 13.9031 4.73218 13.6888C4.8009 13.6292 4.8891 13.6468 4.97202 13.6467C6.02438 13.6455 7.07681 13.6524 8.12904 13.6407C8.37813 13.6379 8.44791 13.7239 8.44487 13.9638C8.4369 14.593 8.44647 14.5931 7.81426 14.5931C7.70393 14.5931 7.5936 14.5932 7.45775 14.5933Z" fill="#DC7800"/>
<path d="M7.14804 10.6527C6.89187 10.5451 6.83332 10.3634 6.84218 10.1144C6.87073 9.3117 6.74361 9.53791 7.43125 9.09203C7.73097 8.89768 7.95219 8.93487 8.25684 9.10249C8.69192 9.34186 8.86984 9.63577 8.81621 10.1339C8.78872 10.3893 8.70177 10.5247 8.50975 10.6852C8.05796 11.0628 7.64368 11.1481 7.20659 10.6901C7.19525 10.6782 7.17817 10.6718 7.14804 10.6527Z" fill="#008EDE"/>
<path d="M22.4129 11.5861C22.4459 11.2838 22.6341 11.0669 22.7646 10.823C22.8145 10.7296 22.8936 10.7685 22.9618 10.812C23.7997 11.3478 24.6371 11.8844 25.4756 12.4192C25.5831 12.4878 25.6018 12.5601 25.5279 12.6701C25.4238 12.8251 25.3233 12.984 25.2389 13.1502C25.1651 13.2953 25.0827 13.3024 24.9564 13.2213C24.1124 12.6798 23.2666 12.1411 22.4129 11.5861Z" fill="#DC7800"/>
<path d="M22.9243 29.327C23.3873 29.0743 23.8367 28.8357 24.2785 28.5838C24.4212 28.5024 24.4997 28.5199 24.5837 28.6608C24.7044 28.8635 24.8454 29.054 24.9958 29.2766C24.1562 29.7922 23.2854 30.2191 22.4121 30.6836C22.272 30.4373 22.1381 30.2054 22.0079 29.9715C21.9478 29.8636 22.0283 29.8202 22.1059 29.7776C22.3734 29.6307 22.6406 29.4833 22.9243 29.327Z" fill="#DC7800"/>
<path d="M10.3823 18.0416C10.395 17.7816 10.4725 17.5727 10.6753 17.4268C10.7556 17.3691 10.7608 17.2863 10.7605 17.1994C10.76 17.0294 10.7748 16.858 10.7574 16.6899C10.7302 16.4277 10.8741 16.3995 11.0821 16.4025C11.2928 16.4056 11.4863 16.3964 11.4499 16.6993C11.4378 16.7998 11.4515 16.9031 11.4484 17.005C11.4421 17.22 11.4585 17.4053 11.6495 17.5716C11.8707 17.7644 11.8811 18.1384 11.7341 18.3981C11.5918 18.6495 11.2973 18.8051 11.0313 18.7695C10.7076 18.7261 10.4675 18.5045 10.4021 18.1877C10.3935 18.1461 10.3895 18.1037 10.3823 18.0416Z" fill="#DC7800"/>
<path d="M4.31664 12.1989C4.60083 12.0196 4.87834 11.8837 5.0032 11.5378C5.10492 11.256 5.51022 11.158 5.79823 11.2749C6.10906 11.401 6.29805 11.732 6.22932 12.03C6.14552 12.3933 5.83754 12.7046 5.54077 12.6185C5.18766 12.516 4.94788 12.6748 4.69351 12.8315C4.49342 12.9547 4.36071 12.9492 4.25033 12.7252C4.1952 12.6134 4.10672 12.5179 4.03616 12.419C4.09581 12.2965 4.21105 12.269 4.31664 12.1989Z" fill="#DC7800"/>
<path d="M20.439 16.996C20.3248 17.1424 20.2801 17.316 20.151 17.4233C20.066 17.4243 20.0138 17.3785 19.9648 17.3322C19.814 17.1894 19.6603 17.1352 19.4386 17.1938C19.0773 17.2893 18.7449 17.0778 18.6412 16.7353C18.5252 16.3524 18.6825 15.9865 19.0261 15.8401C19.3698 15.6936 19.8331 15.8078 19.9487 16.1372C20.0591 16.4518 20.2878 16.6065 20.5222 16.7688C20.5611 16.8701 20.479 16.9158 20.439 16.996Z" fill="#DC7800"/>
<path d="M16.061 30.9931C16.3453 31.3308 16.325 31.7811 16.0276 32.0577C15.7547 32.3115 15.316 32.3047 15.0332 32.0422C14.7349 31.7653 14.7184 31.3106 15.0043 30.9883C15.0968 30.884 15.169 30.7783 15.1994 30.6396C15.2594 30.3655 15.4947 30.4807 15.6583 30.4503C15.8222 30.4199 15.8605 30.5327 15.8509 30.6706C15.8405 30.8221 15.9575 30.892 16.061 30.9931Z" fill="#DC7800"/>
<path d="M4.483 21.5929C4.21985 21.9173 3.91526 22.0216 3.60049 21.9075C3.30442 21.8003 3.09598 21.495 3.10238 21.178C3.10914 20.8427 3.32031 20.5612 3.65596 20.4665C3.95573 20.3819 4.21585 20.4888 4.41393 20.7062C4.65075 20.9662 4.66849 21.268 4.483 21.5929Z" fill="#008EDE"/>
<path d="M22.4038 14.5954C22.6289 14.9771 22.5883 15.3457 22.3063 15.602C22.0628 15.8234 21.638 15.8387 21.3623 15.6361C21.0811 15.4294 20.9925 15.0317 21.1531 14.6966C21.3776 14.2282 21.9857 14.171 22.4038 14.5954Z" fill="#008EDE"/>
<path d="M9.41312 24.2584C9.66917 24.6257 9.67839 24.9118 9.45654 25.2039C9.28253 25.433 8.95323 25.5299 8.68061 25.4285C8.39701 25.3231 8.23332 25.1041 8.22093 24.8157C8.20929 24.545 8.31899 24.2968 8.57469 24.1562C8.8654 23.9965 9.14395 24.0342 9.41312 24.2584Z" fill="#008EDE"/>
<path d="M12.5299 7.83515C12.6996 8.15917 12.6122 8.43247 12.4041 8.672C12.2367 8.86475 11.922 8.91573 11.676 8.80421C11.4349 8.69486 11.2845 8.51139 11.2724 8.23523C11.2598 7.9489 11.353 7.71419 11.6211 7.58169C11.8792 7.45413 12.132 7.47461 12.3627 7.65264C12.4221 7.69854 12.4675 7.76265 12.5299 7.83515Z" fill="#DC7800"/>
<path d="M17.2258 32.7684C17.4408 32.6336 17.6402 32.5089 17.8606 32.3711C18.0146 32.6235 18.1222 32.8829 18.3141 33.0873C18.3949 33.1733 18.3358 33.245 18.253 33.2907C17.9719 33.446 17.6889 33.598 17.4069 33.7517C17.3257 33.796 17.2582 33.782 17.2135 33.7012C17.0909 33.4793 16.9328 33.2824 16.7643 33.0888C16.8866 32.9233 17.0735 32.8865 17.2258 32.7684Z" fill="#DC7800"/>
<path d="M13.3752 33.1147C13.2339 33.3599 13.0888 33.587 12.9305 33.8349C12.5526 33.6215 12.2244 33.391 11.8905 33.1493C12.0254 32.9201 12.1506 32.7102 12.2727 32.4985C12.3206 32.4155 12.3803 32.3923 12.46 32.4496C12.7626 32.667 13.1061 32.8267 13.3752 33.1147Z" fill="#DC7800"/>
<path d="M16.8765 16.0574C16.5224 16.0645 16.2576 15.9194 16.1638 15.6842C16.1306 15.6009 16.1188 15.5194 16.1762 15.4422C16.2292 15.3711 16.3007 15.3646 16.382 15.3836C16.5325 15.4188 16.7085 15.5316 16.8138 15.3327C16.9237 15.125 16.7938 14.98 16.6307 14.8609C16.6125 14.8477 16.6055 14.8192 16.5861 14.785C16.7291 14.6147 16.8964 14.6881 17.0471 14.7481C17.2891 14.8445 17.4437 15.1089 17.4279 15.3833C17.4082 15.7278 17.2257 15.95 16.8765 16.0574Z" fill="#008EDE"/>
<path d="M36.1235 29V25.5H43.5985C43.9319 25.5 44.2319 25.4167 44.4985 25.25C44.7652 25.0833 44.9735 24.8667 45.1235 24.6C45.2902 24.3333 45.3735 24.0417 45.3735 23.725C45.3735 23.3917 45.2902 23.0917 45.1235 22.825C44.9735 22.5583 44.7652 22.3417 44.4985 22.175C44.2319 22.0083 43.9319 21.925 43.5985 21.925H40.8985C39.8819 21.925 38.9569 21.725 38.1235 21.325C37.2902 20.925 36.6235 20.3417 36.1235 19.575C35.6402 18.7917 35.3985 17.8583 35.3985 16.775C35.3985 15.7083 35.6319 14.7833 36.0985 14C36.5652 13.2167 37.1985 12.6083 37.9985 12.175C38.7985 11.725 39.6819 11.5 40.6485 11.5H48.3735V15H41.1235C40.8235 15 40.5485 15.075 40.2985 15.225C40.0485 15.375 39.8569 15.575 39.7235 15.825C39.5902 16.075 39.5235 16.35 39.5235 16.65C39.5235 16.95 39.5902 17.225 39.7235 17.475C39.8569 17.7083 40.0485 17.9 40.2985 18.05C40.5485 18.2 40.8235 18.275 41.1235 18.275H43.9485C45.0652 18.275 46.0319 18.4917 46.8485 18.925C47.6819 19.3417 48.3235 19.9333 48.7735 20.7C49.2402 21.45 49.4735 22.3333 49.4735 23.35C49.4735 24.55 49.2319 25.575 48.7485 26.425C48.2819 27.2583 47.6485 27.9 46.8485 28.35C46.0485 28.7833 45.1652 29 44.1985 29H36.1235ZM58.02 29C56.6867 29 55.5034 28.725 54.47 28.175C53.4367 27.6083 52.62 26.85 52.02 25.9C51.42 24.9333 51.12 23.8333 51.12 22.6C51.12 21.3667 51.42 20.275 52.02 19.325C52.62 18.3583 53.4367 17.5917 54.47 17.025C55.5034 16.4583 56.6867 16.175 58.02 16.175H59.945V19.45H58.17C57.52 19.45 56.9617 19.5917 56.495 19.875C56.0284 20.1417 55.6617 20.5167 55.395 21C55.145 21.4667 55.02 22 55.02 22.6C55.02 23.2 55.145 23.7417 55.395 24.225C55.6617 24.6917 56.0284 25.0667 56.495 25.35C56.9617 25.6167 57.52 25.75 58.17 25.75H59.945V29H58.02ZM62.096 29V16.175H65.996V29H62.096ZM64.046 14.725C63.4293 14.725 62.896 14.5 62.446 14.05C61.996 13.6 61.771 13.0667 61.771 12.45C61.771 11.8333 61.996 11.3 62.446 10.85C62.896 10.3833 63.4293 10.15 64.046 10.15C64.6627 10.15 65.196 10.3833 65.646 10.85C66.096 11.3 66.321 11.8333 66.321 12.45C66.321 13.0667 66.096 13.6 65.646 14.05C65.196 14.5 64.6627 14.725 64.046 14.725Z" fill="#008EDE"/>
<path d="M81.2343 29.3C80.2176 29.3 79.2843 29.075 78.4343 28.625C77.6009 28.175 76.9343 27.55 76.4343 26.75C75.9509 25.95 75.7093 25 75.7093 23.9V16.275C75.7093 16.0083 75.6426 15.7667 75.5093 15.55C75.3759 15.3333 75.2009 15.1583 74.9843 15.025C74.7676 14.8917 74.5259 14.825 74.2593 14.825C73.9926 14.825 73.7509 14.8917 73.5343 15.025C73.3176 15.1583 73.1426 15.3333 73.0093 15.55C72.8926 15.7667 72.8343 16.0083 72.8343 16.275V29H68.7343V16.575C68.7343 15.525 68.9676 14.6 69.4343 13.8C69.9176 13 70.5759 12.3667 71.4093 11.9C72.2593 11.4333 73.2093 11.2 74.2593 11.2C75.3259 11.2 76.2759 11.4333 77.1093 11.9C77.9426 12.3667 78.6009 13 79.0843 13.8C79.5676 14.6 79.8093 15.525 79.8093 16.575V24.2C79.8093 24.4833 79.8759 24.7333 80.0093 24.95C80.1426 25.1667 80.3093 25.3417 80.5093 25.475C80.7259 25.5917 80.9593 25.65 81.2093 25.65C81.4759 25.65 81.7176 25.5917 81.9343 25.475C82.1676 25.3417 82.3509 25.1667 82.4843 24.95C82.6176 24.7333 82.6843 24.4833 82.6843 24.2V16.575C82.6843 15.525 82.9259 14.6 83.4093 13.8C83.8926 13 84.5509 12.3667 85.3843 11.9C86.2343 11.4333 87.1759 11.2 88.2093 11.2C89.2759 11.2 90.2176 11.4333 91.0343 11.9C91.8676 12.3667 92.5259 13 93.0093 13.8C93.4926 14.6 93.7343 15.525 93.7343 16.575V29H89.6343V16.25C89.6343 15.9833 89.5676 15.75 89.4343 15.55C89.3176 15.3333 89.1509 15.1583 88.9343 15.025C88.7176 14.8917 88.4759 14.825 88.2093 14.825C87.9593 14.825 87.7176 14.8917 87.4843 15.025C87.2676 15.1583 87.0926 15.3333 86.9593 15.55C86.8259 15.75 86.7593 15.9833 86.7593 16.25V23.9C86.7593 25 86.5093 25.95 86.0093 26.75C85.5093 27.55 84.8426 28.175 84.0093 28.625C83.1759 29.075 82.2509 29.3 81.2343 29.3ZM101.694 29.3C100.561 29.3 99.5609 29.0083 98.6942 28.425C97.8276 27.8417 97.1526 27.0583 96.6692 26.075C96.1859 25.075 95.9442 23.95 95.9442 22.7C95.9442 21.4 96.2276 20.2417 96.7942 19.225C97.3609 18.1917 98.1609 17.375 99.1942 16.775C100.244 16.175 101.478 15.875 102.894 15.875C104.328 15.875 105.544 16.175 106.544 16.775C107.561 17.3583 108.336 18.1667 108.869 19.2C109.419 20.2167 109.694 21.3583 109.694 22.625V29H105.894V26.95H105.794C105.561 27.4 105.261 27.8083 104.894 28.175C104.528 28.525 104.078 28.8 103.544 29C103.028 29.2 102.411 29.3 101.694 29.3ZM102.844 25.95C103.428 25.95 103.936 25.8083 104.369 25.525C104.819 25.225 105.161 24.8167 105.394 24.3C105.628 23.7833 105.744 23.2083 105.744 22.575C105.744 21.9583 105.628 21.4 105.394 20.9C105.161 20.4 104.819 20.0083 104.369 19.725C103.936 19.425 103.428 19.275 102.844 19.275C102.244 19.275 101.719 19.425 101.269 19.725C100.819 20.0083 100.478 20.4 100.244 20.9C100.011 21.4 99.8942 21.9583 99.8942 22.575C99.8942 23.2083 100.011 23.7833 100.244 24.3C100.478 24.8167 100.819 25.225 101.269 25.525C101.719 25.8083 102.244 25.95 102.844 25.95ZM117.26 29C116.077 29 115.152 28.6667 114.485 28C113.818 27.3167 113.485 26.4 113.485 25.25V13.05H117.385V25.025C117.385 25.225 117.452 25.4 117.585 25.55C117.735 25.6833 117.91 25.75 118.11 25.75H120.91V29H117.26ZM111.385 19.35V16.175H120.91V19.35H111.385ZM129.138 29C127.805 29 126.622 28.725 125.588 28.175C124.555 27.6083 123.738 26.85 123.138 25.9C122.538 24.9333 122.238 23.8333 122.238 22.6C122.238 21.3667 122.538 20.275 123.138 19.325C123.738 18.3583 124.555 17.5917 125.588 17.025C126.622 16.4583 127.805 16.175 129.138 16.175H131.063V19.45H129.288C128.638 19.45 128.08 19.5917 127.613 19.875C127.147 20.1417 126.78 20.5167 126.513 21C126.263 21.4667 126.138 22 126.138 22.6C126.138 23.2 126.263 23.7417 126.513 24.225C126.78 24.6917 127.147 25.0667 127.613 25.35C128.08 25.6167 128.638 25.75 129.288 25.75H131.063V29H129.138ZM133.214 29V10.75H137.089V17.025C137.589 16.625 138.139 16.3333 138.739 16.15C139.339 15.9667 139.939 15.875 140.539 15.875C141.706 15.875 142.689 16.125 143.489 16.625C144.306 17.125 144.914 17.8083 145.314 18.675C145.731 19.5417 145.939 20.525 145.939 21.625V29H142.064V21.775C142.064 21.2917 141.947 20.8667 141.714 20.5C141.497 20.1167 141.197 19.8167 140.814 19.6C140.447 19.3667 140.039 19.25 139.589 19.25C139.139 19.25 138.722 19.3583 138.339 19.575C137.956 19.7917 137.647 20.0833 137.414 20.45C137.197 20.8167 137.089 21.2333 137.089 21.7V29H133.214Z" fill="#DC7800"/>
</svg>
